# xmcd
#
# Track frame offsets:
#	150
#	19409
#	35069
#	53533
#	68968
#	84917
#	96917
#	113265
#	132958
#	150134
#	166224
#	181975
#	200883
#	215393
#	231815
#	250976
#	257051
#
# Disc length: 3684 seconds
#
# Revision: 1
# Processed by: cddbd v1.5.2PL0 Copyright (c) Steve Scherf et al.
# Submitted via: audiograbber 1.83.01
#
DISCID=de0e6211
DTITLE=Dennis Laffoon - Always Christmas
DYEAR=1900
DGENRE=
TTITLE0=Little Drummer Boy
TTITLE1=What Child Is This
TTITLE2=Santas Coming To Town
TTITLE3=The First Noel
TTITLE4=Always Christmas
TTITLE5=Joy To The World
TTITLE6=Jolly Old St. Nicholas
TTITLE7=I'll Be Home For Christmas
TTITLE8=Christmas Tree
TTITLE9=Do You Hear What I Hear
TTITLE10=We Three Kings
TTITLE11=God Rest Ye Merry Gentlemen
TTITLE12=A Star Is Born
TTITLE13=Jingle My Bells
TTITLE14=Grinchland
TTITLE15=Merry Christmas
TTITLE16=Scrooge Got Two Shoes
EXTD=
EXTT0=
EXTT1=
EXTT2=
EXTT3=
EXTT4=
EXTT5=
EXTT6=
EXTT7=
EXTT8=
EXTT9=
EXTT10=
EXTT11=
EXTT12=
EXTT13=
EXTT14=
EXTT15=
EXTT16=
PLAYORDER=
